<svg width="25" height="26" fill="none" xmlns="http://www.w3.org/2000/svg"><g clip-path="url(#clip0_9_44)" fill="#4BA9FF"><path d="M8.105 16.872h13.233a.73.73 0 00.704-.531l2.93-10.254a.732.732 0 00-.704-.934H6.415L5.89 2.797a.732.732 0 00-.715-.573H.732a.732.732 0 100 1.464h3.856L7.233 15.59a2.199 2.199 0 00-1.325 2.015 2.2 2.2 0 002.197 2.197h13.233a.732.732 0 100-1.465H8.105a.733.733 0 010-1.465zM7.373 22a2.2 2.2 0 002.197 2.196A2.2 2.2 0 0011.768 22a2.2 2.2 0 00-2.198-2.197A2.2 2.2 0 007.373 22zm10.303 0a2.2 2.2 0 002.197 2.196A2.2 2.2 0 0022.071 22a2.2 2.2 0 00-2.198-2.197A2.2 2.2 0 0017.676 22z"/></g><defs><clipPath id="clip0_9_44"><path fill="#fff" transform="translate(0 .71)" d="M0 0h25v25H0z"/></clipPath></defs></svg>