<svg width="16" height="15" fill="none" xmlns="http://www.w3.org/2000/svg"><g clip-path="url(#clip0_9_487)"><path d="M14.002 9.846c-.918 0-1.82-.144-2.674-.426-.42-.143-.934-.012-1.19.25l-1.686 1.274c-1.956-1.044-3.16-2.249-4.19-4.19L5.496 5.11c.321-.32.436-.789.298-1.228a8.53 8.53 0 01-.427-2.68A1.203 1.203 0 004.164 0H1.41C.746 0 .206.54.206 1.204.206 8.81 6.395 15 14.002 15c.664 0 1.204-.54 1.204-1.204V11.05c0-.663-.54-1.203-1.204-1.203z" fill="#000"/></g><defs><clipPath id="clip0_9_487"><path fill="#fff" transform="translate(.206)" d="M0 0h15v15H0z"/></clipPath></defs></svg>