<svg width="26" height="25" fill="none" xmlns="http://www.w3.org/2000/svg"><g clip-path="url(#clip0_9_37)" fill="#4BA9FF"><path d="M13.25 13.239c3.096 0 5.605-2.938 5.605-6.561 0-5.025-2.51-6.56-5.605-6.56-3.096 0-5.605 1.535-5.605 6.56 0 3.623 2.51 6.56 5.605 6.56zm12.378 9.656l-2.828-6.37a1.42 1.42 0 00-.64-.68l-4.388-2.285a.283.283 0 00-.301.025 6.954 6.954 0 01-4.22 1.435c-1.52 0-2.98-.496-4.222-1.435a.283.283 0 00-.3-.025l-4.39 2.284a1.43 1.43 0 00-.639.68L.872 22.896c-.195.44-.155.942.107 1.345s.705.643 1.186.643h22.17c.48 0 .924-.24 1.186-.643a1.41 1.41 0 00.107-1.345z"/></g><defs><clipPath id="clip0_9_37"><path fill="#fff" transform="translate(.75)" d="M0 0h25v25H0z"/></clipPath></defs></svg>